<!-- style="margin:auto;background:rgba(NaN, NaN, NaN, 0);display:block;z-index:1;position:relative" width="1084" -->
<svg xmlns="http://www.w3.org/2000/svg" xmlns:xlink="http://www.w3.org/1999/xlink" height="322"
  preserveAspectRatio="xMidYMid" viewBox="0 0 1084 322">
  <style type="text/css">
    .all {
      stroke-width: 1px;
    }

    .light {
      stroke: #2fff9e;
    }

    line {
      filter: drop-shadow(3px 3px 1px rgba(0,255,136,0.7));
      /* filter: url(#glow); */
      animation: move 20s linear infinite;
    }

    @keyframes move {
      0% {
        transform: translateX(0px) translateY(0px);
      }
      100% {
        transform: translateX(-256px) translateY(256px);
      }
    }
  </style>
  <defs>
    <filter id="glow">
      <feGaussianBlur stdDeviation="2.5" result="coloredBlur" />
      <feMerge>
        <feMergeNode in="coloredBlur" />
        <feMergeNode in="SourceGraphic" />
      </feMerge>
    </filter>
    <pattern id="pid-0.7735807359934106" x="0" y="0" width="345.6" height="345.6" patternUnits="userSpaceOnUse">
      <g transform="scale(1.35)" class="all">
        <g class="light">
          <!-- <animateTransform attributeName="transform" type="translate" values="0 0;-256 256" keyTimes="0;1"
            repeatCount="indefinite" dur="20"></animateTransform> -->
          <line x1="93.6896305353637" x2="75.71575147590588" y1="83.83758835275793" y2="101.81146741221576"
            stroke-linecap="round"></line>
          <line x1="93.6896305353637" x2="75.71575147590588" y1="-428.16241164724204" y2="-410.18853258778427"
            stroke-linecap="round"></line>
          <line x1="349.6896305353637" x2="331.7157514759059" y1="-428.16241164724204" y2="-410.18853258778427"
            stroke-linecap="round"></line>
          <line x1="605.6896305353637" x2="587.7157514759059" y1="-428.16241164724204" y2="-410.18853258778427"
            stroke-linecap="round"></line>
          <line x1="93.6896305353637" x2="75.71575147590588" y1="-172.16241164724207" y2="-154.18853258778424"
            stroke-linecap="round"></line>
          <line x1="349.6896305353637" x2="331.7157514759059" y1="-172.16241164724207" y2="-154.18853258778424"
            stroke-linecap="round"></line>
          <line x1="605.6896305353637" x2="587.7157514759059" y1="-172.16241164724207" y2="-154.18853258778424"
            stroke-linecap="round"></line>
          <line x1="93.6896305353637" x2="75.71575147590588" y1="83.83758835275793" y2="101.81146741221576"
            stroke-linecap="round"></line>
          <line x1="349.6896305353637" x2="331.7157514759059" y1="83.83758835275793" y2="101.81146741221576"
            stroke-linecap="round"></line>
          <line x1="605.6896305353637" x2="587.7157514759059" y1="83.83758835275793" y2="101.81146741221576"
            stroke-linecap="round"></line>
          <line x1="207.24941141296466" x2="167.48134532138562" y1="234.55973050121918" y2="274.3277965927982"
            stroke-linecap="round"></line>
          <line x1="207.24941141296466" x2="167.48134532138562" y1="-277.4402694987808" y2="-237.67220340720178"
            stroke-linecap="round"></line>
          <line x1="463.24941141296466" x2="423.4813453213856" y1="-277.4402694987808" y2="-237.67220340720178"
            stroke-linecap="round"></line>
          <line x1="719.2494114129647" x2="679.4813453213856" y1="-277.4402694987808" y2="-237.67220340720178"
            stroke-linecap="round"></line>
          <line x1="207.24941141296466" x2="167.48134532138562" y1="-21.440269498780822" y2="18.327796592798222"
            stroke-linecap="round"></line>
          <line x1="463.24941141296466" x2="423.4813453213856" y1="-21.440269498780822" y2="18.327796592798222"
            stroke-linecap="round"></line>
          <line x1="719.2494114129647" x2="679.4813453213856" y1="-21.440269498780822" y2="18.327796592798222"
            stroke-linecap="round"></line>
          <line x1="207.24941141296466" x2="167.48134532138562" y1="234.55973050121918" y2="274.3277965927982"
            stroke-linecap="round"></line>
          <line x1="463.24941141296466" x2="423.4813453213856" y1="234.55973050121918" y2="274.3277965927982"
            stroke-linecap="round"></line>
          <line x1="719.2494114129647" x2="679.4813453213856" y1="234.55973050121918" y2="274.3277965927982"
            stroke-linecap="round"></line>
          <line x1="69.19671201083756" x2="20.15599089926107" y1="61.52941038272999" y2="110.57013149430648"
            stroke-linecap="round"></line>
          <line x1="69.19671201083756" x2="20.15599089926107" y1="-450.47058961727" y2="-401.42986850569355"
            stroke-linecap="round"></line>
          <line x1="325.1967120108376" x2="276.15599089926104" y1="-450.47058961727" y2="-401.42986850569355"
            stroke-linecap="round"></line>
          <line x1="581.1967120108376" x2="532.155990899261" y1="-450.47058961727" y2="-401.42986850569355"
            stroke-linecap="round"></line>
          <line x1="69.19671201083756" x2="20.15599089926107" y1="-194.47058961727" y2="-145.42986850569352"
            stroke-linecap="round"></line>
          <line x1="325.1967120108376" x2="276.15599089926104" y1="-194.47058961727" y2="-145.42986850569352"
            stroke-linecap="round"></line>
          <line x1="581.1967120108376" x2="532.155990899261" y1="-194.47058961727" y2="-145.42986850569352"
            stroke-linecap="round"></line>
          <line x1="69.19671201083756" x2="20.15599089926107" y1="61.52941038272999" y2="110.57013149430648"
            stroke-linecap="round"></line>
          <line x1="325.1967120108376" x2="276.15599089926104" y1="61.52941038272999" y2="110.57013149430648"
            stroke-linecap="round"></line>
          <line x1="581.1967120108376" x2="532.155990899261" y1="61.52941038272999" y2="110.57013149430648"
            stroke-linecap="round"></line>
          <line x1="153.36870174443493" x2="103.52218176454608" y1="129.93915864820679" y2="179.78567862809564"
            stroke-linecap="round"></line>
          <line x1="153.36870174443493" x2="103.52218176454608" y1="-382.0608413517932" y2="-332.21432137190436"
            stroke-linecap="round"></line>
          <line x1="409.36870174443493" x2="359.5221817645461" y1="-382.0608413517932" y2="-332.21432137190436"
            stroke-linecap="round"></line>
          <line x1="665.3687017444349" x2="615.5221817645461" y1="-382.0608413517932" y2="-332.21432137190436"
            stroke-linecap="round"></line>
          <line x1="153.36870174443493" x2="103.52218176454608" y1="-126.06084135179321" y2="-76.21432137190436"
            stroke-linecap="round"></line>
          <line x1="409.36870174443493" x2="359.5221817645461" y1="-126.06084135179321" y2="-76.21432137190436"
            stroke-linecap="round"></line>
          <line x1="665.3687017444349" x2="615.5221817645461" y1="-126.06084135179321" y2="-76.21432137190436"
            stroke-linecap="round"></line>
          <line x1="153.36870174443493" x2="103.52218176454608" y1="129.93915864820679" y2="179.78567862809564"
            stroke-linecap="round"></line>
          <line x1="409.36870174443493" x2="359.5221817645461" y1="129.93915864820679" y2="179.78567862809564"
            stroke-linecap="round"></line>
          <line x1="665.3687017444349" x2="615.5221817645461" y1="129.93915864820679" y2="179.78567862809564"
            stroke-linecap="round"></line>
          <line x1="49.20494471467643" x2="2.7142059537850685" y1="141.75997600855746" y2="188.25071476944882"
            stroke-linecap="round"></line>
          <line x1="49.20494471467643" x2="2.7142059537850685" y1="-370.2400239914425" y2="-323.7492852305512"
            stroke-linecap="round"></line>
          <line x1="305.20494471467646" x2="258.71420595378504" y1="-370.2400239914425" y2="-323.7492852305512"
            stroke-linecap="round"></line>
          <line x1="561.2049447146765" x2="514.714205953785" y1="-370.2400239914425" y2="-323.7492852305512"
            stroke-linecap="round"></line>
          <line x1="49.20494471467643" x2="2.7142059537850685" y1="-114.24002399144254" y2="-67.74928523055118"
            stroke-linecap="round"></line>
          <line x1="305.20494471467646" x2="258.71420595378504" y1="-114.24002399144254" y2="-67.74928523055118"
            stroke-linecap="round"></line>
          <line x1="561.2049447146765" x2="514.714205953785" y1="-114.24002399144254" y2="-67.74928523055118"
            stroke-linecap="round"></line>
          <line x1="49.20494471467643" x2="2.7142059537850685" y1="141.75997600855746" y2="188.25071476944882"
            stroke-linecap="round"></line>
          <line x1="305.20494471467646" x2="258.71420595378504" y1="141.75997600855746" y2="188.25071476944882"
            stroke-linecap="round"></line>
          <line x1="561.2049447146765" x2="514.714205953785" y1="141.75997600855746" y2="188.25071476944882"
            stroke-linecap="round"></line>
          <line x1="84.6808460539986" x2="32.68305955000314" y1="-7.711036017440037" y2="44.28675048655542"
            stroke-linecap="round"></line>
          <line x1="84.6808460539986" x2="32.68305955000314" y1="-519.71103601744" y2="-467.71324951344457"
            stroke-linecap="round"></line>
          <line x1="340.6808460539986" x2="288.6830595500031" y1="-519.71103601744" y2="-467.71324951344457"
            stroke-linecap="round"></line>
          <line x1="596.6808460539986" x2="544.6830595500031" y1="-519.71103601744" y2="-467.71324951344457"
            stroke-linecap="round"></line>
          <line x1="84.6808460539986" x2="32.68305955000314" y1="-263.71103601744005" y2="-211.71324951344457"
            stroke-linecap="round"></line>
          <line x1="340.6808460539986" x2="288.6830595500031" y1="-263.71103601744005" y2="-211.71324951344457"
            stroke-linecap="round"></line>
          <line x1="596.6808460539986" x2="544.6830595500031" y1="-263.71103601744005" y2="-211.71324951344457"
            stroke-linecap="round"></line>
          <line x1="84.6808460539986" x2="32.68305955000314" y1="-7.711036017440037" y2="44.28675048655542"
            stroke-linecap="round"></line>
          <line x1="340.6808460539986" x2="288.6830595500031" y1="-7.711036017440037" y2="44.28675048655542"
            stroke-linecap="round"></line>
          <line x1="596.6808460539986" x2="544.6830595500031" y1="-7.711036017440037" y2="44.28675048655542"
            stroke-linecap="round"></line>
          <line x1="84.6808460539986" x2="32.68305955000314" y1="248.28896398255995" y2="300.28675048655543"
            stroke-linecap="round"></line>
          <line x1="225.38342310559023" x2="185.66602314192056" y1="109.68961591653738" y2="149.40701588020704"
            stroke-linecap="round"></line>
          <line x1="225.38342310559023" x2="185.66602314192056" y1="-402.3103840834626" y2="-362.59298411979296"
            stroke-linecap="round"></line>
          <line x1="481.3834231055902" x2="441.66602314192056" y1="-402.3103840834626" y2="-362.59298411979296"
            stroke-linecap="round"></line>
          <line x1="737.3834231055903" x2="697.6660231419205" y1="-402.3103840834626" y2="-362.59298411979296"
            stroke-linecap="round"></line>
          <line x1="225.38342310559023" x2="185.66602314192056" y1="-146.31038408346262" y2="-106.59298411979296"
            stroke-linecap="round"></line>
          <line x1="481.3834231055902" x2="441.66602314192056" y1="-146.31038408346262" y2="-106.59298411979296"
            stroke-linecap="round"></line>
          <line x1="737.3834231055903" x2="697.6660231419205" y1="-146.31038408346262" y2="-106.59298411979296"
            stroke-linecap="round"></line>
          <line x1="225.38342310559023" x2="185.66602314192056" y1="109.68961591653738" y2="149.40701588020704"
            stroke-linecap="round"></line>
          <line x1="481.3834231055902" x2="441.66602314192056" y1="109.68961591653738" y2="149.40701588020704"
            stroke-linecap="round"></line>
          <line x1="737.3834231055903" x2="697.6660231419205" y1="109.68961591653738" y2="149.40701588020704"
            stroke-linecap="round"></line>
          <line x1="172.83662370669697" x2="103.52581079778793" y1="164.45975635392284" y2="233.77056926283188"
            stroke-linecap="round"></line>
          <line x1="172.83662370669697" x2="103.52581079778793" y1="-347.54024364607716" y2="-278.2294307371681"
            stroke-linecap="round"></line>
          <line x1="428.83662370669697" x2="359.5258107977879" y1="-347.54024364607716" y2="-278.2294307371681"
            stroke-linecap="round"></line>
          <line x1="684.836623706697" x2="615.5258107977879" y1="-347.54024364607716" y2="-278.2294307371681"
            stroke-linecap="round"></line>
          <line x1="172.83662370669697" x2="103.52581079778793" y1="-91.54024364607716" y2="-22.229430737168116"
            stroke-linecap="round"></line>
          <line x1="428.83662370669697" x2="359.5258107977879" y1="-91.54024364607716" y2="-22.229430737168116"
            stroke-linecap="round"></line>
          <line x1="684.836623706697" x2="615.5258107977879" y1="-91.54024364607716" y2="-22.229430737168116"
            stroke-linecap="round"></line>
          <line x1="172.83662370669697" x2="103.52581079778793" y1="164.45975635392284" y2="233.77056926283188"
            stroke-linecap="round"></line>
          <line x1="428.83662370669697" x2="359.5258107977879" y1="164.45975635392284" y2="233.77056926283188"
            stroke-linecap="round"></line>
          <line x1="684.836623706697" x2="615.5258107977879" y1="164.45975635392284" y2="233.77056926283188"
            stroke-linecap="round"></line>
          <line x1="254.85435949520382" x2="240.10841684705935" y1="-1.209429949430282" y2="13.536512698714214"
            stroke-linecap="round"></line>
          <line x1="254.85435949520382" x2="240.10841684705935" y1="-513.2094299494303" y2="-498.4634873012858"
            stroke-linecap="round"></line>
          <line x1="510.8543594952038" x2="496.10841684705935" y1="-513.2094299494303" y2="-498.4634873012858"
            stroke-linecap="round"></line>
          <line x1="766.8543594952039" x2="752.1084168470593" y1="-513.2094299494303" y2="-498.4634873012858"
            stroke-linecap="round"></line>
          <line x1="254.85435949520382" x2="240.10841684705935" y1="-257.2094299494303" y2="-242.4634873012858"
            stroke-linecap="round"></line>
          <line x1="510.8543594952038" x2="496.10841684705935" y1="-257.2094299494303" y2="-242.4634873012858"
            stroke-linecap="round"></line>
          <line x1="766.8543594952039" x2="752.1084168470593" y1="-257.2094299494303" y2="-242.4634873012858"
            stroke-linecap="round"></line>
          <line x1="254.85435949520382" x2="240.10841684705935" y1="-1.209429949430282" y2="13.536512698714214"
            stroke-linecap="round"></line>
          <line x1="510.8543594952038" x2="496.10841684705935" y1="-1.209429949430282" y2="13.536512698714214"
            stroke-linecap="round"></line>
          <line x1="766.8543594952039" x2="752.1084168470593" y1="-1.209429949430282" y2="13.536512698714214"
            stroke-linecap="round"></line>
          <line x1="254.85435949520382" x2="240.10841684705935" y1="254.79057005056973" y2="269.5365126987142"
            stroke-linecap="round"></line>

        </g>
      </g>
    </pattern>
  </defs>
  <rect x="0" y="0" width="1084" height="322" fill="url(#pid-0.7735807359934106)"></rect>
</svg>