<?xml version="1.0" encoding="UTF-8" standalone="no"?>
<!DOCTYPE svg PUBLIC "-//W3C//DTD SVG 1.1//EN" "http://www.w3.org/Graphics/SVG/1.1/DTD/svg11.dtd">
<svg width="100%" height="100%" viewBox="0 0 1920 1080" version="1.1" xmlns="http://www.w3.org/2000/svg"
    xmlns:xlink="http://www.w3.org/1999/xlink" xml:space="preserve" xmlns:serif="http://www.serif.com/"
    style="fill-rule:evenodd;clip-rule:evenodd;stroke-linecap:round;stroke-linejoin:round;stroke-miterlimit:1.5;">
    <style type="text/css">
        .lines {
            /* fill: #e96969; */
            fill: #69e9a2;
            filter: drop-shadow(0px 0px 3px #00df64);
            transform-origin: 3% 7%;
            transform: scale(90%);
        }
    </style>
    <rect x="0" y="0" width="1920" height="1080"
        style="fill:rgb(17,20,23);stroke:rgb(17,20,23);stroke-width:34.12px;" />
    <g id="featured.svg" transform="matrix(6.36915,0,0,6.36915,960,511.359)">
        <g transform="matrix(1,0,0,1,-64,-64)">
            <g class="lines">
                <path
                    d="M26.23,124.208C26.383,125.681 27.625,126.8 29.106,126.8C43.098,126.8 109.229,126.8 123.909,126.8C124.676,126.8 125.411,126.495 125.953,125.953C126.495,125.411 126.8,124.676 126.8,123.909C126.8,120.403 126.8,114.714 126.8,112.719C126.8,112.247 126.684,111.782 126.463,111.365C125.019,108.639 119.298,97.843 116.653,92.853C115.906,91.443 114.157,90.905 112.746,91.652C112.193,91.945 111.609,92.254 111.056,92.547C110.378,92.906 109.871,93.519 109.646,94.252C109.42,94.985 109.495,95.778 109.854,96.456C112.713,101.849 119.1,113.9 119.1,113.9L119.1,119.1L102.1,119.1C102.1,119.1 104.951,84.889 105.839,74.231C105.906,73.425 105.633,72.628 105.085,72.034C104.538,71.439 103.766,71.1 102.958,71.1C89.578,71.1 37.414,71.1 23.908,71.1C23.089,71.1 22.308,71.447 21.76,72.056C21.212,72.664 20.947,73.476 21.032,74.29C22.076,84.316 25.278,115.063 26.23,124.208ZM97.8,78.8L94.4,119.1L33.4,119.1L29.2,78.8L97.8,78.8Z"
                    style="fill-rule:nonzero;" />
                <path
                    d="M90.8,38C90.8,23.2 78.8,11.2 64,11.2C49.2,11.2 37.2,23.2 37.2,38C37.2,52.8 49.2,64.8 64,64.8C78.8,64.8 90.8,52.8 90.8,38ZM44.8,38C44.8,27.4 53.4,18.8 64,18.8C74.6,18.8 83.2,27.4 83.2,38C83.2,48.6 74.6,57.2 64,57.2C53.4,57.2 44.8,48.6 44.8,38Z"
                    style="fill-rule:nonzero;" />
                <path
                    d="M8.8,114C8.8,114 15.221,101.202 17.79,96.081C18.376,94.913 17.95,93.489 16.818,92.836C16.299,92.536 15.734,92.21 15.191,91.896C14.512,91.504 13.703,91.405 12.95,91.621C12.196,91.837 11.562,92.349 11.194,93.041C8.528,98.048 2.878,108.66 1.439,111.363C1.216,111.781 1.1,112.248 1.1,112.722C1.1,114.719 1.1,120.404 1.1,123.909C1.1,125.506 2.394,126.8 3.991,126.8C7.097,126.8 12.003,126.8 15.109,126.8C15.876,126.8 16.611,126.495 17.153,125.953C17.695,125.411 18,124.676 18,123.909L18,122.091C18,120.494 16.706,119.2 15.109,119.2C12.411,119.2 8.8,119.2 8.8,119.2L8.8,114Z"
                    style="fill-rule:nonzero;" />
                <circle cx="63" cy="98" r="4"/>
            </g>
        </g>
    </g>
</svg>