<?xml version="1.0" encoding="UTF-8" standalone="no"?>
<!DOCTYPE svg PUBLIC "-//W3C//DTD SVG 1.1//EN" "http://www.w3.org/Graphics/SVG/1.1/DTD/svg11.dtd">
<svg width="100%" height="100%" viewBox="0 0 1920 1080" version="1.1" xmlns="http://www.w3.org/2000/svg"
    xmlns:xlink="http://www.w3.org/1999/xlink" xml:space="preserve" xmlns:serif="http://www.serif.com/"
    style="fill-rule:evenodd;clip-rule:evenodd;stroke-linecap:round;stroke-linejoin:round;stroke-miterlimit:1.5;">
    <style type="text/css">
        .lines {
            /* fill: #e96969; */
            fill: #69e9a2;
            filter: drop-shadow(0px 0px 17px #00df64);
            /* transform-origin: 500% 480%; */
            transform: scale(110%) translate(45%, 45%);
        }
    </style>
    <rect x="0" y="0" width="1920" height="1080"
        style="fill:rgb(17,20,23);stroke:rgb(17,20,23);stroke-width:34.12px;" />
    <g class="lines" id="copyright_orig.svg" transform="matrix(1.35,0,0,1.35,960,540)">
        <g transform="matrix(1,0,0,1,-400,-400)">
            <path
                d="M466.667,300C450.657,280.027 431,266.667 400,266.667C335.897,266.667 300,304.762 300,400C300,495.237 335.897,533.333 400,533.333C431,533.333 450.657,519.973 466.667,500M400,700C565.687,700 700,565.687 700,400C700,234.315 565.687,100 400,100C234.315,100 100,234.315 100,400C100,565.687 234.315,700 400,700Z"
                style="fill:none;fill-rule:nonzero;stroke:rgb(106,233,162);stroke-width:48.59px;stroke-miterlimit:4;" />
        </g>
    </g>
</svg>