<?xml version="1.0" encoding="UTF-8" standalone="no"?>
<!DOCTYPE svg PUBLIC "-//W3C//DTD SVG 1.1//EN" "http://www.w3.org/Graphics/SVG/1.1/DTD/svg11.dtd">
<svg width="100%" height="100%" viewBox="0 0 1920 1080" version="1.1" xmlns="http://www.w3.org/2000/svg"
    xmlns:xlink="http://www.w3.org/1999/xlink" xml:space="preserve" xmlns:serif="http://www.serif.com/"
    style="fill-rule:evenodd;clip-rule:evenodd;stroke-linecap:round;stroke-linejoin:round;stroke-miterlimit:1.5;">
    <style type="text/css">
        .lines {
            stroke: #69e9a2;
            filter: drop-shadow(0px 0px 15px #00df64);
        }
    </style>
    <rect x="0" y="0" width="1920" height="1080" style="fill:rgb(17,20,23);" />
    <g transform="matrix(1.04652,0,0,1.04652,-51.0514,14.7471)">
        <g class="lines">
            <rect x="601.363" y="102.914" width="725.433" height="483.74"
                style="fill:none;stroke-width:32.6px;" />
            <path
                d="M601.363,531.907L1326.8,531.907L1326.8,586.654L1451.29,872.876C1458.49,890.951 1454.57,901.345 1437.05,900.878L497.571,900.878C478.053,900.253 473.114,889.602 481.277,870.308L601.363,586.654"
                style="fill:none;stroke-width:32.6px;" />
            <path d="M1087.8,751.765L1104.02,835.501L827.547,835.501L841.502,751.765L1087.8,751.765Z"
                style="fill:none;stroke-width:32.6px;" />
            <path
                d="M1093.6,332.421C1087.8,513.332 797.786,500.784 841.88,295.835C852.089,317.819 869.652,338.222 898.971,359.202C884.126,273.973 902.122,205.923 950.645,170.986C958.213,218.72 975.01,275.385 1008.73,312.053C1005.08,266.383 1017.91,234.133 1049.47,219.643C1048.89,280.693 1062.99,320.657 1093.6,332.421Z"
                style="fill:none;stroke-width:32.6px;" />
        </g>
    </g>
</svg>