<?xml version="1.0" encoding="UTF-8" standalone="no"?>
<!DOCTYPE svg PUBLIC "-//W3C//DTD SVG 1.1//EN" "http://www.w3.org/Graphics/SVG/1.1/DTD/svg11.dtd">
<svg width="100%" height="100%" viewBox="0 0 1920 1080" version="1.1" xmlns="http://www.w3.org/2000/svg" xmlns:xlink="http://www.w3.org/1999/xlink" xml:space="preserve" xmlns:serif="http://www.serif.com/" style="fill-rule:evenodd;clip-rule:evenodd;stroke-linecap:round;stroke-linejoin:round;stroke-miterlimit:1.5;">
    <style type="text/css">
        .lines {
            /* fill: #e96969; */
            fill: #69e9a2;
            filter: drop-shadow(0px 0px 17px #00df64);
            transform-origin: -90% -150%;
            transform: scale(80%);
        }
    </style>
    <rect x="0" y="0" width="1920" height="1080" style="fill:rgb(17,20,23);stroke:rgb(17,20,23);stroke-width:34.12px;"/>
    <g id="networking_orig.svg" transform="matrix(1.09712,0,0,1.09712,960,540)">
        <g class="lines" transform="matrix(1,0,0,1,-400,-400)">
            <clipPath id="_clip1">
                <rect x="0" y="0" width="800" height="800"/>
            </clipPath>
            <g clip-path="url(#_clip1)">
                <g>
                    <g>
                        <path d="M500.656,400C500.656,344.426 455.41,299.344 400,299.344C344.59,299.344 299.344,344.426 299.344,400C299.344,455.574 344.59,500.656 400,500.656C455.41,500.656 500.656,455.574 500.656,400ZM400,461.311C366.23,461.311 338.689,433.77 338.689,400C338.689,366.23 366.23,338.689 400,338.689C433.77,338.689 461.311,366.23 461.311,400C461.311,433.77 433.77,461.311 400,461.311Z" style="fill:rgb(106,233,162);fill-rule:nonzero;stroke:rgb(106,233,162);stroke-width:1px;stroke-linecap:butt;stroke-miterlimit:2;"/>
                        <path d="M254.262,380.328C243.443,380.328 234.59,389.18 234.59,400C234.59,410.82 243.443,419.672 254.262,419.672C265.082,419.672 273.934,410.82 273.934,400C273.934,389.18 265.082,380.328 254.262,380.328Z" style="fill:rgb(106,233,162);fill-rule:nonzero;stroke:rgb(106,233,162);stroke-width:1px;stroke-linecap:butt;stroke-miterlimit:2;"/>
                        <path d="M170.164,400C170.164,410.82 179.016,419.672 189.836,419.672C200.656,419.672 209.508,410.82 209.508,400C209.508,389.18 200.656,380.328 189.836,380.328C179.016,380.328 170.164,389.18 170.164,400Z" style="fill:rgb(106,233,162);fill-rule:nonzero;stroke:rgb(106,233,162);stroke-width:1px;stroke-linecap:butt;stroke-miterlimit:2;"/>
                        <path d="M145.082,400C145.082,360 112.459,327.377 72.459,327.377C32.459,327.377 0,360 0,400C0,440 32.623,472.623 72.623,472.623C112.623,472.623 145.082,440 145.082,400ZM72.623,433.279C54.262,433.279 39.344,418.361 39.344,400C39.344,381.639 54.262,366.721 72.623,366.721C90.984,366.721 105.902,381.639 105.902,400C105.902,418.361 90.82,433.279 72.623,433.279Z" style="fill:rgb(106,233,162);fill-rule:nonzero;stroke:rgb(106,233,162);stroke-width:1px;stroke-linecap:butt;stroke-miterlimit:2;"/>
                        <circle cx="610.164" cy="400" r="19.672" style="fill:rgb(106,233,162);stroke:rgb(106,233,162);stroke-width:1px;stroke-linecap:butt;stroke-miterlimit:2;"/>
                        <path d="M545.738,419.672C556.557,419.672 565.41,410.82 565.41,400C565.41,389.18 556.557,380.328 545.738,380.328C534.918,380.328 526.066,389.18 526.066,400C526.066,410.82 534.918,419.672 545.738,419.672Z" style="fill:rgb(106,233,162);fill-rule:nonzero;stroke:rgb(106,233,162);stroke-width:1px;stroke-linecap:butt;stroke-miterlimit:2;"/>
                        <path d="M727.377,327.377C687.377,327.377 654.754,360 654.754,400C654.754,440 687.377,472.623 727.377,472.623C767.377,472.623 800,440 800,400C800,360 767.377,327.377 727.377,327.377ZM727.377,433.279C709.016,433.279 694.098,418.361 694.098,400C694.098,381.639 709.016,366.721 727.377,366.721C745.738,366.721 760.656,381.639 760.656,400C760.656,418.361 745.738,433.279 727.377,433.279Z" style="fill:rgb(106,233,162);fill-rule:nonzero;stroke:rgb(106,233,162);stroke-width:1px;stroke-linecap:butt;stroke-miterlimit:2;"/>
                        <path d="M400,526.066C389.18,526.066 380.328,534.918 380.328,545.738C380.328,556.557 389.18,565.41 400,565.41C410.82,565.41 419.672,556.557 419.672,545.738C419.672,534.918 410.82,526.066 400,526.066Z" style="fill:rgb(106,233,162);fill-rule:nonzero;stroke:rgb(106,233,162);stroke-width:1px;stroke-linecap:butt;stroke-miterlimit:2;"/>
                        <path d="M400,590.492C389.18,590.492 380.328,599.344 380.328,610.164C380.328,620.984 389.18,629.836 400,629.836C410.82,629.836 419.672,620.984 419.672,610.164C419.672,599.344 410.82,590.492 400,590.492Z" style="fill:rgb(106,233,162);fill-rule:nonzero;stroke:rgb(106,233,162);stroke-width:1px;stroke-linecap:butt;stroke-miterlimit:2;"/>
                        <path d="M400,654.918C360,654.918 327.377,687.541 327.377,727.541C327.377,767.541 360,800 400,800C440,800 472.623,767.377 472.623,727.377C472.623,687.377 440,654.918 400,654.918ZM400,760.656C381.639,760.656 366.721,745.738 366.721,727.377C366.721,709.016 381.639,694.098 400,694.098C418.361,694.098 433.279,709.016 433.279,727.377C433.279,745.738 418.361,760.656 400,760.656Z" style="fill:rgb(106,233,162);fill-rule:nonzero;stroke:rgb(106,233,162);stroke-width:1px;stroke-linecap:butt;stroke-miterlimit:2;"/>
                        <path d="M400,273.934C410.82,273.934 419.672,265.082 419.672,254.262C419.672,243.443 410.82,234.59 400,234.59C389.18,234.59 380.328,243.443 380.328,254.262C380.328,265.082 389.18,273.934 400,273.934Z" style="fill:rgb(106,233,162);fill-rule:nonzero;stroke:rgb(106,233,162);stroke-width:1px;stroke-linecap:butt;stroke-miterlimit:2;"/>
                        <circle cx="400" cy="189.836" r="19.672" style="fill:rgb(106,233,162);stroke:rgb(106,233,162);stroke-width:1px;stroke-linecap:butt;stroke-miterlimit:2;"/>
                        <path d="M400,145.082C440,145.082 472.623,112.459 472.623,72.459C472.623,32.459 440,0 400,0C360,0 327.377,32.623 327.377,72.623C327.377,112.623 360,145.082 400,145.082ZM400,39.344C418.361,39.344 433.279,54.262 433.279,72.623C433.279,90.984 418.361,105.902 400,105.902C381.639,105.902 366.721,90.984 366.721,72.623C366.721,54.262 381.639,39.344 400,39.344Z" style="fill:rgb(106,233,162);fill-rule:nonzero;stroke:rgb(106,233,162);stroke-width:1px;stroke-linecap:butt;stroke-miterlimit:2;"/>
                        <path d="M283.115,489.18C275.41,496.885 275.41,509.344 283.115,517.049C290.82,524.754 303.279,524.754 310.984,517.049C318.689,509.344 318.689,496.885 310.984,489.18C303.115,481.475 290.656,481.475 283.115,489.18Z" style="fill:rgb(106,233,162);fill-rule:nonzero;stroke:rgb(106,233,162);stroke-width:1px;stroke-linecap:butt;stroke-miterlimit:2;"/>
                        <circle cx="251.475" cy="548.525" r="19.672" style="fill:rgb(106,233,162);stroke:rgb(106,233,162);stroke-width:1px;stroke-linecap:butt;stroke-miterlimit:2;"/>
                        <path d="M117.213,580.164C88.852,608.525 88.852,654.426 117.213,682.787C145.574,711.148 191.475,711.148 219.836,682.787C248.197,654.426 248.197,608.525 219.836,580.164C191.475,551.967 145.41,551.967 117.213,580.164ZM191.967,655.082C179.016,668.033 158.033,668.033 145.082,655.082C132.131,642.131 132.131,621.148 145.082,608.197C158.033,595.246 179.016,595.246 191.967,608.197C204.918,620.984 204.918,642.131 191.967,655.082Z" style="fill:rgb(106,233,162);fill-rule:nonzero;stroke:rgb(106,233,162);stroke-width:1px;stroke-linecap:butt;stroke-miterlimit:2;"/>
                        <circle cx="548.525" cy="251.475" r="19.672" style="fill:rgb(106,233,162);stroke:rgb(106,233,162);stroke-width:1px;stroke-linecap:butt;stroke-miterlimit:2;"/>
                        <circle cx="503.115" cy="296.885" r="19.672" style="fill:rgb(106,233,162);stroke:rgb(106,233,162);stroke-width:1px;stroke-linecap:butt;stroke-miterlimit:2;"/>
                        <path d="M682.787,219.836C711.148,191.475 711.148,145.574 682.787,117.213C654.426,88.852 608.525,88.852 580.164,117.213C551.803,145.574 551.803,191.475 580.164,219.836C608.525,248.197 654.59,248.033 682.787,219.836ZM608.033,144.918C620.984,131.967 641.967,131.967 654.918,144.918C667.869,157.869 667.869,178.852 654.918,191.803C641.967,204.754 620.984,204.754 608.033,191.803C595.082,179.016 595.082,157.869 608.033,144.918Z" style="fill:rgb(106,233,162);fill-rule:nonzero;stroke:rgb(106,233,162);stroke-width:1px;stroke-linecap:butt;stroke-miterlimit:2;"/>
                        <circle cx="548.525" cy="548.525" r="19.672" style="fill:rgb(106,233,162);stroke:rgb(106,233,162);stroke-width:1px;stroke-linecap:butt;stroke-miterlimit:2;"/>
                        <path d="M489.18,489.18C481.475,496.885 481.475,509.344 489.18,517.049C496.885,524.754 509.344,524.754 517.049,517.049C524.754,509.344 524.754,496.885 517.049,489.18C509.344,481.475 496.885,481.475 489.18,489.18Z" style="fill:rgb(106,233,162);fill-rule:nonzero;stroke:rgb(106,233,162);stroke-width:1px;stroke-linecap:butt;stroke-miterlimit:2;"/>
                        <path d="M580.164,580.164C551.803,608.525 551.803,654.426 580.164,682.787C608.525,711.148 654.426,711.148 682.787,682.787C711.148,654.426 711.148,608.525 682.787,580.164C654.59,551.967 608.525,551.967 580.164,580.164ZM655.082,655.082C642.131,668.033 621.148,668.033 608.197,655.082C595.246,642.131 595.246,621.148 608.197,608.197C621.148,595.246 642.131,595.246 655.082,608.197C668.033,620.984 668.033,642.131 655.082,655.082Z" style="fill:rgb(106,233,162);fill-rule:nonzero;stroke:rgb(106,233,162);stroke-width:1px;stroke-linecap:butt;stroke-miterlimit:2;"/>
                        <circle cx="296.885" cy="296.885" r="19.672" style="fill:rgb(106,233,162);stroke:rgb(106,233,162);stroke-width:1px;stroke-linecap:butt;stroke-miterlimit:2;"/>
                        <circle cx="251.475" cy="251.475" r="19.672" style="fill:rgb(106,233,162);stroke:rgb(106,233,162);stroke-width:1px;stroke-linecap:butt;stroke-miterlimit:2;"/>
                        <path d="M219.836,219.836C248.197,191.475 248.197,145.574 219.836,117.213C191.475,88.852 145.574,88.852 117.213,117.213C88.852,145.574 88.852,191.475 117.213,219.836C145.41,248.033 191.475,248.033 219.836,219.836ZM144.918,144.918C157.869,131.967 178.852,131.967 191.803,144.918C204.754,157.869 204.754,178.852 191.803,191.803C178.852,204.754 157.869,204.754 144.918,191.803C131.967,179.016 131.967,157.869 144.918,144.918Z" style="fill:rgb(106,233,162);fill-rule:nonzero;stroke:rgb(106,233,162);stroke-width:1px;stroke-linecap:butt;stroke-miterlimit:2;"/>
                    </g>
                </g>
            </g>
        </g>
    </g>
</svg>
